<?xml version="1.0" standalone="no"?>
<!DOCTYPE svg PUBLIC "-//W3C//DTD SVG 20010904//EN"
 "http://www.w3.org/TR/2001/REC-SVG-20010904/DTD/svg10.dtd">
<svg version="1.0" xmlns="http://www.w3.org/2000/svg"
 width="1080.000000pt" height="1080.000000pt" viewBox="0 0 1080.000000 1080.000000"
 preserveAspectRatio="xMidYMid meet">
<metadata>
Created by potrace 1.16, written by Peter Selinger 2001-2019
</metadata>
<g transform="translate(0.000000,1080.000000) scale(0.100000,-0.100000)"
fill="#000000" stroke="none">
<path d="M7500 7857 c-143 -196 -318 -372 -532 -533 -126 -95 -260 -177 -823
-509 -144 -85 -214 -133 -251 -171 -55 -56 -119 -176 -150 -277 -10 -31 -23
-56 -28 -54 -6 2 -24 29 -40 61 -27 51 -30 71 -36 179 -5 97 -10 130 -27 163
-30 56 -80 98 -150 124 -84 32 -149 31 -215 -2 -29 -15 -70 -30 -91 -33 -47
-8 -77 -36 -77 -74 0 -28 2 -29 38 -25 45 6 96 -18 126 -59 16 -22 21 -43 21
-95 -1 -102 -44 -181 -130 -233 -51 -32 -60 -26 -90 59 -71 203 -150 298 -335
401 -184 104 -677 399 -775 464 -238 159 -457 366 -617 583 -60 81 -85 103
-74 67 3 -10 12 -45 20 -78 23 -89 121 -374 155 -450 37 -81 91 -151 163 -209
29 -24 215 -136 413 -248 558 -317 929 -530 940 -540 27 -24 -96 34 -460 217
-367 185 -542 280 -841 458 -60 36 -110 61 -112 57 -7 -18 254 -473 298 -521
82 -87 115 -97 635 -184 253 -42 462 -78 464 -81 21 -21 -388 16 -797 72 -100
14 -187 24 -192 22 -15 -5 308 -279 359 -305 25 -13 59 -23 77 -23 18 0 160
41 315 90 155 50 283 89 285 87 3 -2 -37 -23 -87 -46 -206 -94 -349 -215 -379
-321 -21 -72 10 -130 190 -360 52 -66 96 -118 98 -115 2 2 -2 37 -8 79 -16 93
-8 279 14 361 34 125 128 287 216 370 29 27 26 20 -34 -105 -81 -169 -116
-285 -123 -410 -6 -115 14 -181 78 -254 23 -26 39 -52 36 -59 -3 -7 -32 -47
-66 -89 -75 -95 -193 -197 -311 -269 -49 -30 -89 -57 -90 -61 0 -15 205 -8
260 8 83 24 162 110 230 246 47 96 55 106 72 97 23 -13 20 -25 -37 -141 -57
-115 -124 -213 -203 -299 -36 -38 -62 -72 -59 -76 13 -12 134 18 177 45 25 15
59 49 77 75 35 53 78 172 96 270 l12 65 115 -103 c63 -57 116 -103 117 -102 1
1 -19 43 -43 92 -144 294 -220 596 -229 915 l-6 175 101 -325 c134 -435 210
-669 218 -674 4 -2 74 217 156 487 82 271 153 496 158 502 20 22 -2 -289 -33
-465 -40 -228 -138 -519 -221 -655 -37 -61 -16 -57 55 10 147 142 177 169 183
163 3 -4 12 -43 20 -87 21 -119 69 -242 114 -294 43 -48 108 -81 183 -92 39
-6 47 -5 47 8 0 8 -3 17 -7 19 -5 2 -32 30 -61 62 -93 104 -180 244 -232 377
-16 39 -18 54 -9 65 16 19 28 18 36 -3 19 -60 88 -187 127 -237 86 -111 151
-138 317 -134 l104 3 -116 76 c-137 91 -240 184 -320 292 l-59 78 35 51 c92
132 86 309 -17 556 -22 53 -54 123 -71 156 -44 84 -44 85 -2 46 104 -98 195
-272 225 -430 13 -67 13 -255 1 -330 -5 -30 -8 -57 -6 -58 5 -6 169 203 225
286 89 132 88 200 -7 303 -74 80 -135 123 -277 196 -67 34 -117 62 -112 63 16
0 239 -69 407 -126 185 -63 212 -65 284 -17 53 34 345 282 345 292 0 4 -105
-8 -232 -25 -271 -38 -496 -62 -658 -68 l-115 -5 70 15 c39 8 253 46 476 83
252 43 424 77 452 89 69 30 131 95 186 191 136 238 231 414 227 418 -2 2 -21
-6 -43 -20 -93 -59 -365 -213 -558 -317 -276 -149 -828 -419 -800 -391 16 15
649 380 984 567 471 262 488 282 636 753 36 115 65 211 65 215 0 18 -20 -1
-60 -57z"/>
<path d="M5183 5165 c3 -11 15 -46 26 -77 12 -32 21 -68 21 -81 0 -139 -182
-353 -435 -512 l-88 -55 132 0 c100 0 141 4 166 16 96 45 210 219 265 403 26
90 25 144 -4 206 -27 56 -91 134 -83 100z"/>
<path d="M5580 5150 c-37 -40 -70 -112 -77 -169 -4 -36 2 -68 27 -141 70 -212
181 -362 290 -394 55 -16 260 -23 260 -8 0 4 -44 35 -98 69 -54 34 -132 91
-173 126 -79 68 -189 203 -220 272 -27 58 -24 142 5 215 14 33 22 60 19 60 -3
0 -17 -13 -33 -30z"/>
<path d="M5311 4824 c-48 -117 -130 -283 -167 -341 -22 -32 -67 -88 -101 -124
-35 -37 -63 -70 -63 -74 0 -4 27 -5 59 -3 109 8 190 80 241 216 35 90 61 236
58 315 l-3 71 -24 -60z"/>
<path d="M5450 4839 c0 -136 49 -339 104 -433 44 -74 135 -126 224 -126 l44 0
-61 65 c-108 116 -213 292 -271 455 -30 85 -40 94 -40 39z"/>
<path d="M5386 4696 c-14 -58 -58 -265 -67 -316 -5 -35 -5 -76 2 -115 10 -62
55 -156 76 -162 24 -8 83 145 83 216 0 42 -69 382 -80 394 -4 5 -10 -3 -14
-17z"/>
<path d="M2304 3290 c-31 -12 -54 -49 -54 -86 0 -41 40 -77 103 -93 78 -19 98
-60 45 -91 -25 -14 -32 -13 -75 3 -78 30 -80 30 -87 10 -9 -23 22 -49 77 -64
104 -28 199 38 171 119 -9 26 -38 44 -136 86 -25 10 -38 22 -38 35 0 32 25 44
78 37 82 -12 86 -12 90 6 7 37 -112 63 -174 38z"/>
<path d="M2762 3133 l3 -168 25 0 c23 0 25 5 30 50 l5 50 42 3 c42 3 43 2 78
-52 27 -43 41 -56 60 -56 32 0 31 3 -6 61 l-31 49 31 31 c27 26 31 38 31 83 0
45 -4 56 -31 82 -29 28 -35 29 -135 32 l-104 4 2 -169z m196 101 c15 -10 22
-25 22 -48 0 -49 -28 -68 -97 -70 l-58 -1 -3 68 -3 67 58 0 c37 0 67 -6 81
-16z"/>
<path d="M3304 3285 c-4 -8 -5 -64 -2 -125 4 -122 16 -150 79 -183 43 -23 119
-18 157 10 50 36 62 76 62 201 l0 113 -27 -3 -28 -3 -5 -123 c-5 -115 -7 -125
-29 -143 -34 -28 -92 -25 -125 6 -25 23 -26 27 -26 145 l0 120 -25 0 c-14 0
-28 -7 -31 -15z"/>
<path d="M3864 3286 c-10 -27 6 -36 62 -36 l54 0 0 -105 c0 -101 -1 -105 -26
-121 -24 -16 -27 -16 -61 0 -63 30 -74 -19 -12 -52 36 -19 97 -8 128 22 25 26
26 29 26 164 l0 137 -83 3 c-66 2 -83 0 -88 -12z"/>
<path d="M4424 3288 c-9 -11 -119 -258 -140 -311 -5 -13 -1 -17 20 -17 20 0
30 9 46 40 l20 40 85 0 85 0 17 -37 c17 -37 47 -54 63 -36 4 4 -25 80 -64 168
-63 141 -75 160 -97 163 -14 2 -30 -3 -35 -10z"/>
<path d="M4880 3130 l0 -170 25 0 25 0 0 116 c0 66 4 114 9 112 5 -1 47 -52
93 -113 67 -88 88 -110 108 -110 l25 0 3 168 2 167 -25 0 -25 0 0 -115 c0 -63
-4 -115 -9 -115 -5 0 -47 52 -95 115 -70 93 -91 115 -111 115 l-25 0 0 -170z"/>
<path d="M5818 3284 c-78 -42 -58 -135 34 -164 81 -26 100 -39 96 -68 -5 -42
-59 -51 -123 -23 -47 21 -50 21 -63 4 -11 -15 -10 -20 8 -35 25 -20 82 -38
122 -38 64 0 118 44 118 95 0 54 -21 72 -137 115 -37 14 -51 44 -32 67 10 11
24 14 59 9 95 -12 95 -12 98 10 2 17 -5 24 -29 33 -44 15 -119 13 -151 -5z"/>
<path d="M6282 3133 l3 -168 25 0 c24 0 25 3 28 68 l3 67 89 0 89 0 3 -67 c3
-62 5 -68 26 -71 l22 -3 0 170 0 171 -25 0 c-23 0 -24 -3 -27 -72 l-3 -73 -87
-3 -87 -3 -3 73 c-3 72 -4 73 -31 76 l-27 3 2 -168z"/>
<path d="M6864 3287 c-2 -7 -3 -82 -2 -167 l3 -155 120 0 c117 0 120 1 123 23
3 21 1 22 -92 22 l-96 0 0 50 0 50 80 0 c79 0 80 0 80 25 0 25 -1 25 -80 25
l-80 0 0 45 0 45 90 0 c89 0 90 0 90 25 l0 25 -115 0 c-85 0 -117 -3 -121 -13z"/>
<path d="M7340 3276 c0 -23 4 -25 53 -28 l52 -3 3 -142 3 -143 24 0 25 0 0
145 0 145 55 0 c52 0 55 1 55 25 l0 25 -135 0 -135 0 0 -24z"/>
<path d="M7820 3276 c0 -23 4 -25 53 -28 l52 -3 3 -142 3 -143 24 0 25 0 0
144 0 145 53 3 c45 3 52 6 55 26 3 22 3 22 -132 22 l-136 0 0 -24z"/>
<path d="M8318 3263 c11 -21 37 -67 58 -103 30 -51 39 -79 43 -130 6 -61 7
-65 31 -65 24 0 25 4 31 65 4 55 14 81 62 165 43 76 52 101 41 103 -28 7 -41
-6 -85 -82 -24 -42 -46 -76 -49 -76 -3 0 -25 35 -50 78 -38 63 -51 78 -73 80
l-28 3 19 -38z"/>
</g>
</svg>
