<?xml version="1.0" standalone="no"?>
<!DOCTYPE svg PUBLIC "-//W3C//DTD SVG 20010904//EN"
 "http://www.w3.org/TR/2001/REC-SVG-20010904/DTD/svg10.dtd">
<svg version="1.0" xmlns="http://www.w3.org/2000/svg"
 width="1080.000000pt" height="1080.000000pt" viewBox="0 0 1080.000000 1080.000000"
 preserveAspectRatio="xMidYMid meet">
<metadata>
Created by potrace 1.16, written by Peter Selinger 2001-2019
</metadata>
<g transform="translate(0.000000,1080.000000) scale(0.100000,-0.100000)"
fill="#000000" stroke="none">
<path d="M0 5400 l0 -5400 5400 0 5400 0 0 5400 0 5400 -5400 0 -5400 0 0
-5400z m7556 2503 c-3 -10 -33 -108 -66 -217 -103 -330 -133 -391 -255 -503
-61 -57 -126 -98 -409 -255 -299 -168 -707 -402 -901 -517 -254 -152 520 226
925 451 74 41 200 114 279 162 79 48 145 85 147 83 2 -2 -57 -113 -131 -248
-151 -273 -197 -330 -297 -367 -29 -11 -246 -52 -483 -92 -236 -40 -446 -76
-465 -80 -65 -14 71 -11 249 5 161 15 683 81 709 90 6 2 12 1 12 -4 0 -12
-331 -293 -370 -313 -51 -27 -95 -22 -221 23 -126 45 -435 139 -453 138 -6 0
30 -20 81 -44 116 -54 212 -117 286 -185 104 -95 126 -179 73 -277 -27 -50
-207 -289 -248 -328 l-20 -20 6 22 c15 47 23 220 15 302 -15 149 -65 282 -154
406 -40 55 -123 143 -114 120 2 -5 28 -59 57 -118 149 -306 171 -515 68 -665
l-35 -50 42 -60 c85 -122 203 -230 357 -327 108 -69 108 -69 -60 -63 -93 3
-111 7 -159 33 -78 43 -166 165 -224 313 -15 38 -19 42 -38 32 -25 -14 -22
-24 37 -149 55 -115 118 -212 201 -308 35 -39 63 -75 63 -79 0 -12 -89 5 -141
27 -71 31 -121 92 -158 196 -18 47 -36 117 -42 157 -16 102 -16 101 -38 85
-11 -8 -70 -61 -132 -119 -62 -58 -110 -98 -107 -90 4 8 31 69 61 135 100 219
159 420 192 657 19 136 31 386 18 373 -6 -5 -77 -230 -158 -500 -82 -269 -150
-492 -151 -494 -9 -11 -66 163 -247 759 -41 134 -76 236 -78 226 -9 -44 11
-323 31 -442 37 -219 114 -454 215 -655 l37 -72 -40 34 c-22 19 -76 67 -120
107 l-80 72 -7 -52 c-9 -67 -50 -199 -81 -259 -27 -53 -71 -94 -132 -121 -45
-20 -142 -36 -142 -23 0 4 31 40 68 80 76 79 167 219 220 337 29 64 33 80 22
93 -7 8 -16 15 -19 15 -4 0 -31 -47 -59 -105 -67 -134 -140 -215 -219 -245
-46 -17 -74 -20 -165 -18 l-111 3 111 73 c61 40 146 105 188 145 74 69 174
190 174 210 0 5 -17 29 -39 52 -122 133 -106 349 50 675 57 119 59 123 29 95
-87 -82 -170 -223 -211 -355 -20 -63 -24 -97 -24 -215 0 -77 3 -165 8 -195 9
-65 21 -77 -131 121 -135 174 -153 205 -154 267 0 63 21 102 92 173 69 70 164
132 288 189 51 24 91 44 89 46 -3 4 -200 -57 -414 -126 -83 -28 -168 -50 -188
-50 -53 0 -96 22 -162 82 -32 29 -109 95 -171 147 -61 52 -110 96 -108 99 3 2
42 -1 88 -7 378 -52 586 -76 753 -86 55 -3 116 -8 135 -11 22 -4 31 -2 25 4
-10 9 -100 26 -615 112 -374 62 -430 82 -503 173 -39 48 -290 494 -285 507 2
5 37 -12 78 -37 153 -94 471 -273 655 -369 257 -133 695 -347 701 -341 2 2
-283 168 -633 367 -351 200 -663 380 -693 401 -102 69 -169 148 -217 257 -31
71 -114 314 -143 418 -12 44 -24 87 -26 97 -10 34 13 16 55 -44 151 -213 389
-441 636 -606 111 -74 537 -330 740 -444 222 -125 293 -205 370 -421 30 -85
39 -91 90 -59 78 48 124 124 132 220 8 100 -47 167 -138 165 -46 0 -49 1 -49
25 0 45 27 67 99 81 28 5 65 20 82 32 60 44 216 15 295 -55 61 -52 78 -98 80
-214 1 -57 8 -120 14 -140 15 -46 58 -123 69 -123 4 0 15 24 24 53 32 101 105
236 154 285 33 33 150 107 378 241 442 260 553 329 703 441 157 117 389 347
492 487 72 98 97 123 86 86z m-2295 -2832 c34 -68 35 -124 5 -225 -48 -156
-141 -307 -228 -370 -51 -37 -128 -50 -235 -41 -71 6 -85 10 -70 19 242 147
425 325 477 464 25 67 25 98 -1 170 -34 94 -34 101 0 62 17 -19 41 -55 52 -79z
m350 87 c-5 -13 -16 -40 -25 -60 -27 -63 -21 -151 14 -217 69 -129 223 -280
390 -382 49 -30 89 -58 90 -63 0 -4 -55 -6 -122 -4 -102 4 -131 9 -171 28 -96
46 -194 190 -258 380 -25 77 -30 103 -24 143 7 60 36 121 78 165 37 38 39 39
28 10z m-274 -385 c-7 -114 -35 -231 -78 -323 -35 -75 -58 -103 -116 -136 -39
-24 -139 -47 -156 -37 -4 2 22 37 57 78 105 120 159 212 251 428 21 48 40 87
43 87 3 0 2 -44 -1 -97z m152 27 c53 -156 156 -329 266 -447 35 -39 62 -73 59
-76 -8 -8 -86 3 -129 20 -108 40 -168 136 -210 336 -19 89 -31 237 -19 237 5
0 20 -31 33 -70z m-48 -255 c40 -190 43 -274 11 -356 -12 -30 -29 -64 -37 -75
-15 -18 -16 -18 -39 10 -34 40 -59 126 -58 200 0 33 16 134 36 224 20 90 36
166 36 170 0 3 4 2 8 -3 5 -6 24 -82 43 -170z m-2921 -1248 c36 -12 47 -32 31
-56 -8 -12 -14 -13 -36 -3 -40 18 -114 16 -122 -4 -10 -28 10 -46 83 -76 77
-31 94 -48 94 -94 0 -91 -130 -133 -228 -74 -33 20 -38 34 -23 58 7 11 16 10
47 -7 21 -12 55 -21 76 -21 34 0 68 20 68 40 0 18 -33 40 -85 56 -30 10 -65
28 -77 41 -26 27 -29 82 -8 109 34 40 112 54 180 31z m527 -6 c50 -23 63 -45
63 -105 0 -36 -6 -52 -31 -80 l-30 -35 30 -45 c38 -54 39 -66 6 -66 -19 0 -33
13 -62 55 -36 56 -37 56 -82 53 l-46 -3 -3 -52 c-3 -49 -5 -53 -28 -53 l-24 0
0 175 0 175 83 0 c59 0 94 -6 124 -19z m391 -107 c2 -113 4 -123 27 -144 33
-31 98 -31 128 -1 20 19 22 34 25 147 l4 125 26 -3 27 -3 0 -127 c0 -112 -2
-130 -21 -155 -44 -60 -125 -78 -200 -44 -62 28 -74 63 -74 211 l0 121 28 -3
27 -3 3 -121z m677 -21 c0 -142 0 -143 -28 -170 -23 -23 -36 -28 -77 -28 -40
0 -55 5 -75 25 -22 23 -24 28 -12 44 13 18 15 18 38 3 32 -23 76 -22 89 2 5
11 10 62 10 114 0 107 0 107 -76 107 -40 0 -44 2 -44 25 l0 26 88 -3 87 -3 0
-142z m520 -23 c40 -91 71 -168 68 -172 -2 -5 -14 -8 -27 -8 -17 0 -28 10 -41
40 l-18 40 -87 0 -88 0 -16 -40 c-13 -32 -21 -40 -41 -40 -14 0 -25 6 -25 13
0 6 32 85 72 175 71 160 73 163 102 160 27 -3 33 -12 101 -168z m464 49 l90
-122 3 119 3 119 28 3 27 3 -2 -173 -3 -173 -25 0 c-20 0 -42 23 -115 119
l-90 119 -3 -122 -3 -122 -27 3 -27 3 -3 160 c-1 87 0 165 2 172 3 7 16 13 30
13 19 0 42 -25 115 -121z m951 105 c44 -18 46 -22 26 -49 -12 -16 -17 -17 -43
-6 -43 18 -92 17 -111 -3 -26 -26 -5 -47 74 -76 59 -22 72 -30 87 -62 16 -33
16 -40 3 -71 -27 -65 -128 -84 -214 -39 -42 21 -47 31 -29 56 12 17 15 17 49
-4 67 -39 163 -12 132 37 -6 10 -40 28 -75 40 -35 12 -72 32 -81 44 -20 24
-23 70 -7 100 24 46 117 62 189 33z m368 -61 l3 -73 89 0 90 0 0 76 0 75 28
-3 27 -3 0 -170 0 -170 -25 0 c-24 0 -25 3 -30 70 l-5 70 -87 3 -87 3 -3 -73
c-3 -71 -4 -73 -30 -76 l-28 -3 0 176 0 176 28 -3 c26 -3 27 -5 30 -75z m768
62 c13 -33 -15 -45 -102 -45 l-84 0 0 -45 0 -44 83 -3 c74 -3 82 -5 82 -23 0
-18 -8 -20 -82 -23 l-83 -3 0 -44 0 -45 95 0 95 0 0 -30 0 -31 -122 3 -123 3
-3 173 -2 172 120 0 c98 0 122 -3 126 -15z m504 -10 c0 -22 -4 -25 -39 -25
-73 0 -71 4 -71 -156 l0 -144 -25 0 -24 0 -3 148 -3 147 -52 3 c-49 3 -53 5
-53 28 l0 24 135 0 135 0 0 -25z m478 -2 c-3 -26 -7 -28 -55 -31 l-53 -3 0
-145 0 -144 -25 0 -24 0 -3 148 -3 147 -52 3 c-49 3 -53 5 -53 28 l0 24 136 0
135 0 -3 -27z m307 -53 c26 -44 50 -80 53 -80 4 0 26 34 50 76 43 75 60 91 86
81 12 -5 2 -29 -42 -109 -48 -88 -58 -113 -62 -168 -5 -61 -6 -65 -30 -65 -23
0 -25 4 -30 60 -4 49 -16 79 -63 164 -31 57 -57 108 -57 112 0 5 11 9 24 9 20
0 33 -15 71 -80z"/>
<path d="M2902 3252 c-9 -6 -12 -28 -10 -68 l3 -59 56 -3 c44 -2 61 1 82 18
31 25 35 58 10 89 -20 23 -118 39 -141 23z"/>
</g>
</svg>
